<svg xmlns="http://www.w3.org/2000/svg" viewBox="0 0 448 512"><!--!Font Awesome Free 6.7.2 by @fontawesome - https://fontawesome.com License - https://fontawesome.com/license/free Copyright 2025 Fonticons, Inc.--><path d="M224 224a32 32 0 1 0 32 32A32.1 32.1 0 0 0 224 224zm214.2-96c-10.9-19.5-40.5-50.8-116.3-41.9C300.4 34.9 267.6 0 224 0s-76.4 34.9-97.9 86.1C50.3 77.4 20.7 108.5 9.8 128-6.5 157.4-5.2 201.1 35 256-5.2 310.9-6.5 354.6 9.8 384c29.1 52.4 101.6 43.6 116.3 41.9C147.6 477.1 180.4 512 224 512s76.4-34.9 97.9-86.1c14.6 1.8 87.1 10.5 116.3-41.9C454.6 354.6 453.2 310.9 413 256 453.2 201.1 454.6 157.4 438.2 128zM63.3 352c-4-7.3-.1-24.8 15-48.3 6.9 6.5 14.1 12.9 21.9 19.1 1.6 13.8 4 27.1 6.8 40.1C82.3 363.9 67.1 358.6 63.3 352zm36.9-162.9c-7.8 6.3-15 12.6-21.9 19.1-15.1-23.5-19-41-15-48.3 3.4-6.1 16.4-11.5 37.9-11.5 1.8 0 3.9 .4 5.8 .4C104.1 162.3 101.8 175.6 100.2 189.1zM224 64c9.5 0 22.3 13.5 33.9 37.3-11.3 3.8-22.5 8-33.9 12.9-11.4-4.9-22.6-9.1-33.9-12.9C201.7 77.5 214.5 64 224 64zm0 384c-9.5 0-22.3-13.5-33.9-37.3 11.3-3.8 22.5-8 33.9-12.9C235.4 402.8 246.6 407 257.9 410.8 246.3 434.5 233.5 448 224 448zm0-112a80 80 0 1 1 80-80A80 80 0 0 1 224 336zM384.7 352c-3.6 6.6-19 11.9-43.6 11 2.8-13 5.1-26.4 6.8-40.1 7.8-6.3 15-12.6 21.9-19.1C384.8 327.3 388.7 344.8 384.7 352zM369.7 208.3c-6.9-6.5-14.1-12.9-21.9-19.1-1.6-13.5-3.9-26.9-6.8-40.3 1.9 0 4-.4 5.8-.4 21.5 0 34.5 5.4 37.9 11.5C388.7 167.3 384.8 184.8 369.7 208.3z"/></svg>